<?xml version="1.0" encoding="utf-8"?>
<!-- Generator: Adobe Illustrator 26.4.1, SVG Export Plug-In . SVG Version: 6.00 Build 0)  -->
<svg version="1.1" id="Layer_1" xmlns="http://www.w3.org/2000/svg" xmlns:xlink="http://www.w3.org/1999/xlink" x="0px" y="0px"
	 viewBox="0 0 992.7 362.5" style="enable-background:new 0 0 992.7 362.5;" xml:space="preserve">
<style type="text/css">
	.st0{fill:#231F20; fill-opacity:0;}
	.st1{fill:#C9E9E6;}
	.st2{fill:#D49171;}
	.st3{fill:#88B26B;}
	.st4{fill:#EA973C;}
	.st5{fill:#FFFFFF;}
	.st6{fill:#BF5E54;}
</style>
<rect x="0" y="0" class="st0" width="992.7" height="362.5"/>
<g>
	<path class="st1" d="M212.3,94.8L212.3,94.8c-4.1,0-7.4-3.3-7.4-7.4V68.7h3.1c5.6,0,10.2-4.6,10.2-10.2V40
		c0-5.6-4.6-10.2-10.2-10.2H68.9c-5.6,0-10.2,4.6-10.2,10.2v18.5c0,5.6,4.6,10.2,10.2,10.2H72v18.8c0,4.1-3.3,7.4-7.4,7.4
		c-15.2,0-27.5,12.3-27.5,27.5V323c0,6.1,45.4,11,101.3,11c56,0,101.3-4.9,101.3-11V122.3C239.8,107.1,227.5,94.8,212.3,94.8"/>
	<path class="st2" d="M111.4,206.1c-16.8-3.5-32.6,4.6-35.5,18.2c-1.2,5.8,9.3,11.5,22,15c-2.3,5.7-5.6,10.7-10.3,14.8
		c-6.2,5.3-13.7,8-21.9,9.2c-6.1,0.8-10.1,7.2-8.1,13.1c1.8,5.3,7.6,8.2,12.9,6.3c14-4.5,27.5-14.1,33.9-27.8
		c2-4.3,3.4-8.7,4.3-13.1c13.6,2.2,26.5,1.4,27.7-4.7C139.4,223.4,128.1,209.6,111.4,206.1"/>
	<path class="st3" d="M68.3,154.1c24.7-8.4,51.2-6.7,74.6,4.8c23.4,11.5,40.9,31.5,49.3,56.2c3.2,9.4-1.8,19.7-11.3,22.9
		c-9.4,3.2-19.7-1.8-22.9-11.3c-10.9-32.1-46-49.4-78.1-38.4c-9.4,3.2-19.7-1.8-22.9-11.3C53.8,167.5,58.8,157.3,68.3,154.1"/>
	<path class="st4" d="M176.6,308.2c-36.3,8.3-93,5.8-116.4,4.2c-3.3-0.2-4.2-4.5-1.4-6.1c20.4-11.6,70.4-38.5,106.7-46.8
		c46.6-10.7,49.9,0.1,53,13.5C221.5,286.5,223.3,297.6,176.6,308.2"/>
	<g>
		<path class="st5" d="M318.3,157V32.4c0-1.6,0.9-2.6,2.6-2.6h39.8c24.7,0,42.4,14.5,42.4,36.2v10.4c0,9.7-3.8,19.6-13.2,27
			c-1.2,1-2.3,1.9-1.9,3.5l13.1,49.1c0.7,2.8-0.9,3.6-2.8,3.6h-19.9c-2.8,0-4,0-4.7-2.6l-10.9-42.1c-0.3-1.6-1.4-2.6-3.5-2.6h-10.4
			c-1.6,0-2.6,1-2.6,2.6V157c0,1.6-0.9,2.6-2.6,2.6h-23C319.3,159.6,318.3,158.6,318.3,157 M360.7,87.1c9,0,14-6.9,14-14.2v-3.6
			c0-7.1-5-14-14-14h-11.6c-1.6,0-2.6,1-2.6,2.6v26.7c0,1.6,1,2.6,2.6,2.6H360.7z"/>
		<path class="st5" d="M428.2,32.4c0-1.6,0.9-2.6,2.6-2.6h57.6c1.6,0,2.6,1,2.6,2.6v19.9c0,1.6-1,2.6-2.6,2.6h-29.2
			c-1.6,0-2.6,1-2.6,2.6v21.6c0,1.6,1,2.6,2.6,2.6h29.2c1.6,0,2.6,1,2.6,2.6v19.9c0,1.6-1,2.6-2.6,2.6h-29.2c-1.6,0-2.6,1-2.6,2.6
			v22.5c0,1.6,1,2.6,2.6,2.6h29.2c1.6,0,2.6,1,2.6,2.6V157c0,1.6-1,2.6-2.6,2.6h-57.6c-1.6,0-2.6-1-2.6-2.6V32.4z"/>
		<path class="st5" d="M515.6,66.8c0-24.6,17.7-38.4,42.4-38.4c24.7,0,42.4,12.8,42.4,36v8c0,1.6-1,2.6-2.6,2.6h-23
			c-1.6,0-2.6-1-2.6-2.6v-4.5c0-9-5.2-14.2-14.2-14.2c-9,0-14,6.4-14,16.4v49.1c0,10,5,16.4,14,16.4c9,0,14.2-4.2,14.2-14.2v-6.1
			c0-1.6-1-2.6-2.6-2.6h-9c-1.6,0-2.6-0.9-2.6-2.6V90c0-1.6,1-2.6,2.6-2.6h37.2c1.6,0,2.6,1,2.6,2.6v35c0,24.4-17.7,36-42.4,36
			c-24.7,0-42.4-14-42.4-38.4V66.8z"/>
		<path class="st5" d="M623.6,32.4c0-1.6,0.9-2.6,2.6-2.6h57.6c1.6,0,2.6,1,2.6,2.6v19.9c0,1.6-1,2.6-2.6,2.6h-29.2
			c-1.6,0-2.6,1-2.6,2.6v21.6c0,1.6,1,2.6,2.6,2.6h29.2c1.6,0,2.6,1,2.6,2.6v19.9c0,1.6-1,2.6-2.6,2.6h-29.2c-1.6,0-2.6,1-2.6,2.6
			v22.5c0,1.6,1,2.6,2.6,2.6h29.2c1.6,0,2.6,1,2.6,2.6V157c0,1.6-1,2.6-2.6,2.6h-57.6c-1.6,0-2.6-1-2.6-2.6V32.4z"/>
		<path class="st5" d="M713.1,157V32.4c0-1.6,1-2.6,2.6-2.6h19.9c2.4,0,3.8,0.5,4.7,2.2l33.1,64.7c0.5,1,1.7,0.7,1.7-0.3v-64
			c0-1.6,1-2.6,2.6-2.6h21.8c1.6,0,2.6,1,2.6,2.6V157c0,1.6-1,2.6-2.6,2.6h-19.9c-2.1,0-3.6-0.3-4.5-2.1l-33.2-65.2
			c-0.5-1-1.7-0.7-1.7,0.3V157c0,1.6-1,2.6-2.6,2.6h-21.8C714.1,159.6,713.1,158.6,713.1,157"/>
		<path class="st5" d="M318.3,330.1V205.5c0-1.6,0.9-2.6,2.6-2.6h39.8c24.7,0,42.4,14.5,42.4,36.2v10.4c0,9.7-3.8,19.6-13.2,27
			c-1.2,1-2.3,1.9-1.9,3.5l13.1,49.1c0.7,2.8-0.9,3.6-2.8,3.6h-19.9c-2.8,0-4,0-4.7-2.6L362.9,288c-0.3-1.6-1.4-2.6-3.5-2.6h-10.4
			c-1.6,0-2.6,1-2.6,2.6v42.1c0,1.6-0.9,2.6-2.6,2.6h-23C319.3,332.7,318.3,331.6,318.3,330.1 M360.7,260.1c9,0,14-6.9,14-14.2v-3.6
			c0-7.1-5-14-14-14h-11.6c-1.6,0-2.6,1-2.6,2.6v26.7c0,1.6,1,2.6,2.6,2.6H360.7z"/>
		<path class="st5" d="M428.2,205.5c0-1.6,0.9-2.6,2.6-2.6h57.6c1.6,0,2.6,1,2.6,2.6v19.9c0,1.6-1,2.6-2.6,2.6h-29.2
			c-1.6,0-2.6,1-2.6,2.6v21.6c0,1.6,1,2.6,2.6,2.6h29.2c1.6,0,2.6,1,2.6,2.6v19.9c0,1.6-1,2.6-2.6,2.6h-29.2c-1.6,0-2.6,1-2.6,2.6
			V305c0,1.6,1,2.6,2.6,2.6h29.2c1.6,0,2.6,1,2.6,2.6v19.9c0,1.6-1,2.6-2.6,2.6h-57.6c-1.6,0-2.6-1-2.6-2.6V205.5z"/>
		<path class="st5" d="M515.6,239.9c0-24.6,17.7-38.4,42.4-38.4c24.7,0,42.4,13.8,42.4,38.4v7.8c0,1.6-1,2.6-2.6,2.6h-23
			c-1.7,0-2.6-1-2.6-2.6v-4.5c0-10-5.2-16.4-14.2-16.4c-9,0-14,6.4-14,16.4v49.1c0,10,5,16.4,14,16.4c9,0,14.2-6.4,14.2-16.4v-4.5
			c0-1.6,0.9-2.6,2.6-2.6h23c1.6,0,2.6,1,2.6,2.6v7.8c0,24.4-17.7,38.4-42.4,38.4c-24.7,0-42.4-14-42.4-38.4V239.9z"/>
		<path class="st5" d="M625.5,330.1V205.5c0-1.6,0.9-2.6,2.6-2.6h23c1.6,0,2.6,1,2.6,2.6v124.6c0,1.6-0.9,2.6-2.6,2.6h-23
			C626.5,332.7,625.5,331.6,625.5,330.1"/>
		<path class="st5" d="M682.4,330.1V205.5c0-1.6,0.9-2.6,2.6-2.6h39.6c24.7,0,42.6,15.1,42.6,38.4v12.6c0,23.2-17.8,38.4-42.6,38.4
			h-11.4c-1.6,0-2.6,1-2.6,2.6v35.1c0,1.6-0.9,2.6-2.6,2.6h-23C683.5,332.7,682.4,331.6,682.4,330.1 M724.6,267.1
			c9.2,0,14.2-7.8,14.2-16.6v-5.7c0-9-5-16.4-14.2-16.4h-11.4c-1.6,0-2.6,1-2.6,2.6v33.6c0,1.6,1,2.6,2.6,2.6H724.6z"/>
		<path class="st5" d="M789.7,205.5c0-1.6,0.9-2.6,2.6-2.6h57.6c1.6,0,2.6,1,2.6,2.6v19.9c0,1.6-1,2.6-2.6,2.6h-29.2
			c-1.6,0-2.6,1-2.6,2.6v21.6c0,1.6,1,2.6,2.6,2.6h29.2c1.6,0,2.6,1,2.6,2.6v19.9c0,1.6-1,2.6-2.6,2.6h-29.2c-1.6,0-2.6,1-2.6,2.6
			V305c0,1.6,1,2.6,2.6,2.6h29.2c1.6,0,2.6,1,2.6,2.6v19.9c0,1.6-1,2.6-2.6,2.6h-57.6c-1.6,0-2.6-1-2.6-2.6V205.5z"/>
		<path class="st5" d="M872.1,293.2c0-1.6,1-2.6,2.6-2.6h23.2c1.6,0,2.6,1,2.6,2.6v3.6c0,6.1,4.3,11.9,13.3,11.9
			c9,0,13.5-5.2,13.5-10v-3.1c0-6.8-9.2-11.1-23.2-18c-13.8-7.1-32-15.6-32-35.3v-6.6c0-20.9,17-34.3,41.7-34.3
			c24.7,0,41.7,13.3,41.7,34.3v6.6c0,1.6-0.9,2.6-2.4,2.6h-23.4c-1.6,0-2.4-1-2.4-2.6v-3.1c0-6.6-4.5-12.5-13.5-12.5
			c-8.8,0-13.3,5.2-13.3,10v3.1c0,6.7,8.5,10.7,23,17.8c14,6.7,32,15.7,32,35.5v6.6c0,20.9-17,34.3-41.7,34.3
			c-24.7,0-41.7-13.3-41.7-34.3V293.2z"/>
	</g>
	<path class="st6" d="M91.8,109.4c0.6,13.8,12,24.9,26,24.9c11.3,0.1,22.9,2.3,33.9,7.1c11,4.7,21.4,11.9,30.3,21.1
		c18.5,19.3,28.5,46.6,27.3,73.9c-0.1,3.2,4.3,3.9,5.3,0.9c4.4-14.3,6.2-29.8,4.7-45.4c-3-32.5-20.1-63.5-46.1-84.3
		C159.4,96.5,142.7,88,125,83.1c-2.2-0.6-4.6-1-7-1c-10.9-0.1-20.3,6.6-24.2,16.1l-4.5-0.1c-8.7-1.1-10.8,6.4-1.6,9.1"/>
</g>
</svg>
