<?xml version="1.0" encoding="utf-8"?>
<!-- Generator: Adobe Illustrator 26.4.1, SVG Export Plug-In . SVG Version: 6.00 Build 0)  -->
<svg version="1.1" id="Layer_1" xmlns="http://www.w3.org/2000/svg" xmlns:xlink="http://www.w3.org/1999/xlink" x="0px" y="0px"
	 viewBox="0 0 512 512" style="enable-background:new 0 0 512 512;" xml:space="preserve">
<style type="text/css">
	.st0{fill:#231F20;}
	.st1{fill:#C9E9E6;}
	.st2{fill:#D49171;}
	.st3{fill:#88B26B;}
	.st4{fill:#EA973C;}
	.st5{fill:#FFFFFF;}
	.st6{fill:#BF5E54;}
</style>
<g>
	<path class="st0" d="M328.8,170.1L328.8,170.1c-4,0-7.3-3.3-7.3-7.3v-18.5h3c5.5,0,10-4.5,10-10V116c0-5.5-4.5-10-10-10H187.4
		c-5.5,0-10,4.5-10,10v18.2c0,5.5,4.5,10,10,10h3v18.5c0,4-3.3,7.3-7.3,7.3c-15,0-27.1,12.1-27.1,27.1v198c0,6,44.7,10.8,99.9,10.8
		c55.2,0,99.9-4.9,99.9-10.8v-198C355.9,182.2,343.8,170.1,328.8,170.1"/>
	<path class="st5" d="M229.3,279.8c-16.5-3.5-32.2,4.6-35,17.9c-1.2,5.8,9.2,11.4,21.7,14.8c-2.2,5.6-5.5,10.6-10.1,14.6
		c-6.1,5.2-13.5,7.9-21.6,9.1c-6,0.8-9.9,7.1-7.9,12.9c1.7,5.3,7.5,8,12.7,6.2c13.9-4.4,27.1-13.9,33.5-27.4c2-4.2,3.4-8.6,4.3-13
		c13.4,2.2,26.1,1.4,27.4-4.6C256.9,296.9,245.8,283.3,229.3,279.8"/>
	<path class="st5" d="M186.8,228.5c24.4-8.3,50.5-6.6,73.5,4.7c23.1,11.4,40.3,31,48.6,55.4c3.2,9.3-1.8,19.4-11.1,22.6
		c-9.3,3.2-19.4-1.8-22.6-11.1c-10.8-31.7-45.3-48.7-77-37.9c-9.3,3.2-19.4-1.8-22.6-11.1C172.5,241.8,177.5,231.7,186.8,228.5"/>
	<path class="st5" d="M293.6,380.6c-35.8,8.2-91.7,5.7-114.8,4.2c-3.2-0.2-4.2-4.5-1.4-6.1c20.1-11.4,69.4-37.9,105.2-46.1
		c46-10.5,49.2,0.1,52.2,13.3C337.9,359.1,339.6,370.1,293.6,380.6"/>
	<path class="st5" d="M210,184.5c0.6,13.6,11.8,24.5,25.6,24.6c11.2,0.1,22.6,2.3,33.5,7c10.9,4.7,21.1,11.7,29.8,20.8
		c18.3,19,28.1,45.9,27,72.9c-0.1,3.1,4.3,3.9,5.2,0.9c4.4-14.1,6.1-29.4,4.6-44.8c-3-32-19.8-62.6-45.5-83.1
		c-13.6-11-30-19.4-47.5-24.2c-2.2-0.6-4.5-1-6.9-1c-10.7-0.1-20,6.5-23.9,15.8l-4.4-0.1c-8.6-1.1-10.7,6.3-1.6,9"/>
</g>
</svg>
